name precision_landing05_filtered_grf.mot
datacolumns 37
datarows 12
range 0.670500 0.676000
endheader
time	1_ground_force_vx	1_ground_force_vy	1_ground_force_vz	1_ground_force_px	1_ground_force_py	1_ground_force_pz	1_ground_torque_x	1_ground_torque_y	1_ground_torque_z	2_ground_force_vx	2_ground_force_vy	2_ground_force_vz	2_ground_force_px	2_ground_force_py	2_ground_force_pz	2_ground_torque_x	2_ground_torque_y	2_ground_torque_z	3_ground_force_vx	3_ground_force_vy	3_ground_force_vz	3_ground_force_px	3_ground_force_py	3_ground_force_pz	3_ground_torque_x	3_ground_torque_y	3_ground_torque_z	4_ground_force_vx	4_ground_force_vy	4_ground_force_vz	4_ground_force_px	4_ground_force_py	4_ground_force_pz	4_ground_torque_x	4_ground_torque_y	4_ground_torque_z
            0.670500	           -0.000000	            0.000000	            0.000000	            0.118404	            0.000000	            0.326900	            0.000000	            0.000000	           -0.000000	           -0.000000	           -0.000000	           -0.000000	           -0.178590	            0.000000	            0.245785	           -0.000000	            0.000000	           -0.000000	           21.017811	          268.905007	          -99.944856	            0.380823	            1.274843	            1.890179	           -1.136900	          -14.545671	            5.406240	           11.839533	          254.260922	         -103.369036	           -0.351587	            1.267977	            1.877568	            0.685051	           14.711877	           -5.981071
            0.671000	           -0.000000	            0.000000	            0.000000	            0.118404	            0.000000	            0.326900	            0.000000	            0.000000	           -0.000000	           -0.000000	           -0.000000	           -0.000000	           -0.178590	            0.000000	            0.245785	           -0.000000	            0.000000	           -0.000000	           21.199556	          264.985044	          -99.410499	            0.380821	            1.274859	            1.890175	           -1.141742	          -14.271271	            5.353941	           11.361676	          250.214738	         -102.746967	           -0.351575	            1.267982	            1.877549	            0.656490	           14.457686	           -5.936834
            0.671500	           -0.000000	            0.000000	            0.000000	            0.118404	            0.000000	            0.326900	            0.000000	            0.000000	           -0.000000	           -0.000000	           -0.000000	           -0.000000	           -0.178590	            0.000000	            0.245785	           -0.000000	            0.000000	           -0.000000	           21.384745	          261.024788	          -98.838282	            0.380820	            1.274874	            1.890172	           -1.146639	          -13.996016	            5.299658	           10.878374	          246.126474	         -102.091308	           -0.351563	            1.267988	            1.877531	            0.627671	           14.201234	           -5.890559
            0.672000	           -0.000000	            0.000000	            0.000000	            0.118404	            0.000000	            0.326900	            0.000000	            0.000000	           -0.000000	           -0.000000	           -0.000000	           -0.000000	           -0.178590	            0.000000	            0.245785	           -0.000000	            0.000000	           -0.000000	           21.573388	          257.024562	          -98.228228	            0.380818	            1.274890	            1.890168	           -1.151585	          -13.719941	            5.243411	           10.389559	          241.995982	         -101.402139	           -0.351551	            1.267994	            1.877513	            0.598592	           13.942534	           -5.842257
            0.672500	           -0.000000	            0.000000	            0.000000	            0.118404	            0.000000	            0.326900	            0.000000	            0.000000	           -0.000000	           -0.000000	           -0.000000	           -0.000000	           -0.178590	            0.000000	            0.245785	           -0.000000	            0.000000	           -0.000000	           21.765499	          252.984787	          -97.580419	            0.380816	            1.274906	            1.890165	           -1.156574	          -13.443087	            5.185221	            9.895195	          237.823278	         -100.679554	           -0.351538	            1.267999	            1.877494	            0.569255	           13.681606	           -5.791939
            0.673000	           -0.000000	            0.000000	            0.000000	            0.118404	            0.000000	            0.326900	            0.000000	            0.000000	           -0.000000	            0.000000	           -0.000000	           -0.000000	           -0.178590	            0.000000	            0.245785	           -0.000000	            0.000000	           -0.000000	           21.956660	          248.903240	          -96.903062	            0.380813	            1.274919	            1.890157	           -1.161364	          -13.165353	            5.125538	            9.397299	          233.608692	          -99.923124	           -0.351524	            1.268005	            1.877471	            0.539781	           13.418492	           -5.739588
            0.673500	           -0.000000	            0.000000	            0.000000	            0.118404	            0.000000	            0.326900	            0.000000	            0.000000	           -0.000000	            0.000000	           -0.000000	           -0.000000	           -0.178590	            0.000000	            0.245785	           -0.000000	            0.000000	           -0.000000	           22.151390	          244.783353	          -96.188066	            0.380810	            1.274933	            1.890149	           -1.166188	          -12.886934	            5.063944	            8.893823	          229.352451	          -99.133528	           -0.351510	            1.268012	            1.877449	            0.510055	           13.153222	           -5.685247
            0.674000	           -0.000000	            0.000000	            0.000000	            0.118404	            0.000000	            0.326900	            0.000000	            0.000000	           -0.000000	            0.000000	           -0.000000	           -0.000000	           -0.178590	            0.000000	            0.245785	           -0.000000	            0.000000	           -0.000000	           22.349699	          240.625885	          -95.435690	            0.380807	            1.274947	            1.890141	           -1.171040	          -12.607885	            5.000469	            8.384826	          225.055118	          -98.310893	           -0.351496	            1.268018	            1.877426	            0.480085	           12.885849	           -5.628929
            0.674500	           -0.000000	            0.000000	            0.000000	            0.118404	            0.000000	            0.326900	            0.000000	            0.000000	           -0.000000	            0.000000	           -0.000000	           -0.000000	           -0.178590	            0.000000	            0.245785	           -0.000000	            0.000000	           -0.000000	           22.551590	          236.431718	          -94.646256	            0.380804	            1.274961	            1.890133	           -1.175908	          -12.328261	            4.935141	            7.870405	          220.717463	          -97.455364	           -0.351482	            1.268024	            1.877403	            0.449880	           12.616435	           -5.570648
            0.675000	           -0.000000	            0.000000	            0.000000	            0.118404	            0.000000	            0.326900	            0.000000	            0.000000	           -0.000000	            0.000000	           -0.000000	           -0.000000	           -0.178590	            0.000000	            0.245785	           -0.000000	            0.000000	           -0.000000	           22.757052	          232.201862	          -93.820148	            0.380801	            1.274974	            1.890125	           -1.180782	          -12.048127	            4.867993	            7.350690	          216.340467	          -96.567099	           -0.351468	            1.268030	            1.877380	            0.419453	           12.345054	           -5.510416
            0.675500	           -0.000000	            0.000000	            0.000000	            0.118404	            0.000000	            0.326900	            0.000000	            0.000000	           -0.000000	            0.000000	           -0.000000	           -0.000000	           -0.178590	            0.000000	            0.245785	           -0.000000	            0.000000	           -0.000000	           22.960478	          227.933677	          -92.968468	            0.380796	            1.274987	            1.890113	           -1.185363	          -11.767353	            4.799610	            6.829195	          211.926661	          -95.643077	           -0.351454	            1.268037	            1.877354	            0.389008	           12.071868	           -5.448067
            0.676000	           -0.000000	            0.000000	            0.000000	            0.118404	            0.000000	            0.326900	            0.000000	            0.000000	           -0.000000	            0.000000	            0.000000	           -0.000000	           -0.178590	            0.000000	            0.245785	           -0.000000	           -0.000000	            0.000000	           23.167530	          223.632297	          -92.080751	            0.380791	            1.275000	            1.890100	           -1.189932	          -11.486216	            4.729457	            6.302693	          207.476110	          -94.686852	           -0.351439	            1.268043	            1.877327	            0.358365	           11.796898	           -5.383806
